<svg width="550" height="555" xmlns="http://www.w3.org/2000/svg" xmlns:xlink="http://www.w3.org/1999/xlink" xml:space="preserve" overflow="hidden"><g transform="translate(-1003 -398)"><g><path d="M1018 613.834C1018 578.027 1047.03 549 1082.83 549L1343.17 549C1378.97 549 1408 578.027 1408 613.834L1408 873.166C1408 908.973 1378.97 938 1343.17 938L1082.83 938C1047.03 938 1018 908.973 1018 873.166Z" stroke="#AFAFAF" stroke-width="27.5" stroke-linecap="butt" stroke-linejoin="miter" stroke-miterlimit="8" stroke-opacity="1" fill="none" fill-rule="evenodd"/><path d="M1212 416 1472 416C1507.9 416 1537 445.102 1537 481.001L1537 740.999C1537 776.898 1507.9 806 1472 806L1408.17 806 1408.17 611.001C1408.17 575.102 1379.07 546 1343.17 546L1147 546 1147 481.001C1147 445.102 1176.1 416 1212 416Z" stroke="#AFAFAF" stroke-width="27.5" stroke-linecap="butt" stroke-linejoin="miter" stroke-miterlimit="8" stroke-opacity="1" fill="none" fill-rule="evenodd"/></g></g></svg>